<?xml version="1.0" encoding="UTF-8"?>
<svg id="Layer_1" data-name="Layer 1" xmlns="http://www.w3.org/2000/svg" xmlns:xlink="http://www.w3.org/1999/xlink" viewBox="0 0 2311.35 2304.06">
  <defs>
    <style>
      .cls-1 {
        fill: #adcacb;
      }

      .cls-1, .cls-2, .cls-3, .cls-4, .cls-5, .cls-6, .cls-7 {
        fill-rule: evenodd;
      }

      .cls-2 {
        fill: url(#linear-gradient-2);
      }

      .cls-3 {
        fill: url(#linear-gradient-3);
      }

      .cls-4 {
        fill: #87c159;
      }

      .cls-5 {
        fill: #058240;
      }

      .cls-6 {
        fill: url(#linear-gradient);
      }

      .cls-7 {
        fill: #f3c301;
      }
    </style>
    <linearGradient id="linear-gradient" x1="1025.57" y1="472.59" x2="1056.34" y2="490.35" gradientUnits="userSpaceOnUse">
      <stop offset="0" stop-color="#058240"/>
      <stop offset="1" stop-color="#adcacb"/>
    </linearGradient>
    <linearGradient id="linear-gradient-2" x1="2026.92" y1="1129.41" x2="2075.91" y2="1157.69" xlink:href="#linear-gradient"/>
    <linearGradient id="linear-gradient-3" x1="398.99" y1="292.69" x2="2338.64" y2="1412.55" xlink:href="#linear-gradient"/>
  </defs>
  <path class="cls-4" d="M613.89,1217.44c80.62,51.74,103.81,158.25,51.91,238.63-51.91,80.38-159.25,103.48-239.37,51.74-80.64-51.24-103.8-158.25-52.41-238.62,51.91-80.38,159.25-103.5,239.86-51.74h0Z"/>
  <path class="cls-4" d="M190.1,1086.32c-16.63-181.35-178.39-129.61-188.97,12.56,0,4.51,0,9.04-.5,13.05-9.57,288.87,89.69,575.72,284.72,798.27-1.52-6.54-2.53-13.06-3.03-19.59-3.53-34.66,5.54-71.84,32.26-95.96,50.38-45.71,121.93-17.09,169.3,17.07,65.01,47.23,132.03,82.39,201.57,107.51,42.84-20.59,46.35-82.89-20.15-125.6-287.73-184.86-448.99-419.97-475.19-707.32h0Z"/>
  <path class="cls-7" d="M847.7,1601.24c91.72-26.12,187.95,26.63,214.17,118.56,26.21,91.93-26.7,187.38-118.92,213.5-92.22,26.62-187.95-26.61-214.17-118.56-26.7-91.43,26.7-187.37,118.92-213.5h0Z"/>
  <path class="cls-7" d="M469.28,1832.33c-148.16-107.51-215.68,48.23-114.91,149.71,3.03,3.01,6.06,6.02,9.57,9.04,206.61,193.91,481.74,307.96,771.51,312.98-93.24-52.26-100.28-178.85,60.45-212.52,84.17-17.57,160.26-46.21,228.78-84.39,9.57-44.22-34.77-85.41-108.85-64.3-329.54,93.94-612.74,59.28-846.55-110.52h0Z"/>
  <path class="cls-1" d="M1283.09,1681.11c42.32-85.39,146.13-120.55,231.79-78.86,86.16,42.2,121.43,145.68,79.61,231.59-42.3,85.41-146.13,121.09-232.29,78.88-85.66-42.2-121.45-145.68-79.11-231.61h0Z"/>
  <path class="cls-1" d="M1200.96,2116.17c-178.9,37.16-108.35,191.4,34.77,185.37,4.03-.5,8.55-.5,13.1-1.02,347.18-28.12,673.72-212.5,873.28-516.43-38.82,50.24-81.14,91.93-120.95,112.53-76.09,39.69-122.95-3.51-94.23-83.39l73.58-203.46c31.24-109.02-78.11-148.71-129-45.71-151.17,306.44-366.85,492.81-650.54,552.11h0Z"/>
  <path class="cls-5" d="M563,389.03c124.46-132.62-21.67-218.52-135.06-131.62-3.51,2.51-7.04,5.52-10.07,8.04C197.16,448.31,49,709.55,10.2,998.92c63-85.91,189.98-76.87,205.1,84.89,7.55,82.39,26.2,158.25,54.42,229.07,43.34,16.07,91.21-22.1,79.11-99.47-52.91-337.08,16.13-613.38,214.17-824.38h0ZM746.43,791.92c15.11,94.46-49.88,182.88-144.13,197.44-94.73,15.08-183.41-49.23-198.52-143.68-14.63-94.44,49.88-182.86,144.61-197.42,94.22-15.08,182.93,49.23,198.04,143.67h0Z"/>
  <g>
    <path class="cls-6" d="M1040.19,501.56c8.57-9.54,17.14-19.09,26.2-28.62-10.07-3.53-20.66-7.04-30.74-10.55-6.54,9.04-13.6,18.59-20.14,27.62,8.05,3.51,16.62,7.54,24.68,11.55h0Z"/>
    <path class="cls-2" d="M2058.11,1098.88c-9.59,9.04-19.66,18.07-29.23,27.12,5.54,20.59,10.57,41.19,15.11,61.79,8.57-6.04,16.62-11.57,24.68-17.59-3.03-24.12-6.54-47.73-10.57-71.33h0Z"/>
    <path class="cls-3" d="M1015.52,490.01h0c-44.36,61.29-86.18,125.1-126.99,190.9,49.38-61.29,99.28-121.57,151.67-179.35,57.95,27.64,114.39,59.28,169.32,94.96-133.53,148.69-249.93,310.45-353.24,482.76,127.99-156.73,262.55-310.95,404.14-448.09,75.59,53.75,147.14,114.03,213.15,178.33l-652.57,635.48,695.41-592.78c67.52,69.83,128.49,143.67,181.91,218.52-158.23,125.09-333.6,240.64-510.97,349.14,192.5-82.39,375.41-180.35,546.23-298.41,36.29,54.75,68.54,109.52,96.25,163.27-78.11,55.25-159.74,106.51-242.38,156.23,88.7-39.69,174.34-81.38,256.49-127.59,18.12,36.66,33.25,72.84,46.35,108-4.53-38.69-13.1-78.88-25.7-119.57,62.5-35.66,122.46-73.34,179.4-114.03,14.59,65.8,23.68,133.12,27.2,201.45,6.56-74.36,5.54-147.7-2.51-219.04l-24.18,17.59h0c8.07-6.04,16.12-11.57,24.18-17.59,46.37-34.17,90.7-69.83,132.53-108.01,19.66,222.55-32.26,453.14-162.76,655.59-39.81,61.79-84.66,117.56-134.05,167.8,13.1,28.62,49.38,36.16,96.75,11.05,39.31-20.6,81.64-61.79,119.93-111.53,2.01-3.01,4.52-6.52,6.55-10.05,160.74-248.66,212.64-536.02,168.82-806.29-6.56-40.69-15.13-80.38-25.71-119.55-14.61-53.25-32.75-104.99-54.43-155.23-16.62-37.68-35.27-74.86-55.42-111.02-35.29-61.79-76.09-120.57-122.96-175.34-22.67-26.62-46.85-52.73-72.05-77.37-40.31-39.17-83.65-75.85-130.52-110.02-17.64-12.55-35.79-25.11-54.43-37.16-17.64-11.07-35.78-22.12-53.93-32.15-48.36-27.64-98.24-51.25-149.16-71.34-39.79-15.58-80.11-29.14-120.41-39.69-364.34-98.45-756.88-12.05-1045.62,230.59h0l6.04-5.02,10.07-8.04c69.05-53.25,150.18-41.69,175.38,5.03,221.22-136.65,487.79-186.87,744.77-139.16-50.39,42.7-98.76,88.42-144.61,137.14-116.9-16.07-241.88-13.56-372.39,12.07,117.42-3.01,228.78,8.04,332.58,31.65-44.84,50.22-87.18,102.98-128,158.25-70.54-22.12-143.1-36.68-216.16-40.71,66.52,16.59,132.52,39.69,196.03,68.33h.5l24.18,11.55c-8.05-4.01-16.12-7.54-24.18-11.55h-.5ZM1844.96,1312.88l19.14-10.55c-6.06,3.53-12.6,7.04-19.14,10.55h0ZM1775.4,1092.34c64-45.71,126.49-94.94,186.96-147.2,26.7,58.28,48.86,119.07,66.52,180.86-55.94,50.74-114.39,97.45-174.87,141.16-20.16-57.76-46.35-116.54-78.61-174.82h0ZM2187.61,960.72c-40.83,49.24-84.17,94.96-129.5,138.16-11.6-65.82-29.74-130.12-52.91-191.41,44.84-40.69,88.68-82.88,131.5-127.09,22.19,58.28,39.31,118.56,50.91,180.35h0ZM2092.88,680.41c-37.8,49.73-79.12,97.95-122.96,144.68-40.31-83.91-91.2-161.26-151.17-230.59l138.57-118.05c53.43,62.79,98.76,131.62,135.56,203.96h0ZM1889.79,404.1l-130.52,127.59c-60.46-58.26-127.49-109-201.55-151.21,55.42-39.18,111.86-74.86,169.29-105.99,59.47,38.18,113.89,81.88,162.77,129.61h0ZM1629.27,218.23c-53.41,38.68-104.82,78.87-154.2,120.05-62.48-28.12-129-49.73-199.04-64.8,55.42-45.21,113.88-87.4,175.87-125.59,60.45,18.09,119.42,41.2,177.37,70.34h0ZM1066.39,472.94c49.89-53.75,101.29-105.51,156.21-153.74,67.54,18.59,131.53,42.7,192,71.84-58.45,52.75-114.39,107.5-167.8,164.77-57.95-33.15-118.42-61.27-180.41-82.88h0ZM1066.39,472.94h0ZM1303.75,589.97c60.96-56.76,122.96-110.02,186.96-159.24,77.59,44.2,148.14,96.95,211.64,155.73l-181.41,176.83c-66.51-64.3-139.59-123.08-217.18-173.32h0ZM1566.78,809.51l193.52-165.29c63.99,69.33,118.92,145.18,164.27,227.08-56.94,56.76-118.42,111.53-182.91,164.27-48.88-78.37-107.85-155.23-174.88-226.06h0Z"/>
  </g>
</svg>