<svg fill="none" height="24" viewBox="0 0 24 24" width="24" xmlns="http://www.w3.org/2000/svg"><path d="m19.434 8.235c-.1513-.36556-.4077-.67802-.7366-.89785-.329-.21984-.7158-.33717-1.1114-.33715h-11.172c-.3955.00008-.78209.11743-1.11091.3372s-.5851.53209-.73644.89749-.19095.76747-.11381 1.15537c.07713.38791.26754.74424.54716 1.02394l5.586 5.586c.3751.3749.8837.5856 1.414.5856s1.0389-.2107 1.414-.5856l5.586-5.586c.2797-.2796.4702-.63584.5474-1.02369.0773-.38785.0378-.78989-.1134-1.15531z" fill="#000"/></svg>