<svg fill="none" height="24" viewBox="0 0 24 24" width="24" xmlns="http://www.w3.org/2000/svg"><path d="m7.5 7.99981c1.65685 0 3-1.3431 3-2.99991 0-1.6568-1.34315-2.9999-3-2.9999s-3 1.3431-3 2.9999c0 1.65681 1.34315 2.99991 3 2.99991zm-5.5 2.76799c0-.97631.79149-1.7678 1.76784-1.7678h4.7673c-.34035.58834-.53514 1.2714-.53514 2 0 1.1947.52377 2.2671 1.3542 3h-1.08636c-1.18682 0-2.19917.747-2.59257 1.7964-1.49871-.3663-2.4276-1.1836-2.97441-2.0937-.70092-1.1667-.70087-2.3672-.70086-2.5755zm14.0001.2322c0-.7286-.1947-1.41166-.5351-2h4.7672c.9763 0 1.7678.79149 1.7678 1.7678v.3594c0 .2083.0001 1.4088-.7009 2.5755-.5468.9101-1.4757 1.7274-2.9744 2.0937-.3934-1.0494-1.4057-1.7964-2.5925-1.7964h-1.0863c.8305-.7329 1.3542-1.8053 1.3542-3zm3.4999-6.0001c0 1.65681-1.3431 2.99991-3 2.99991s-3-1.3431-3-2.99991c0-1.6568 1.3431-2.9999 3-2.9999s3 1.3431 3 2.9999zm-13 11.7679c0-.9763.79149-1.7678 1.76784-1.7678h7.46436c.9763 0 1.7678.7915 1.7678 1.7678v.3594c0 .2083.0001 1.4088-.7009 2.5755-.7413 1.234-2.1851 2.2973-4.7991 2.2973-2.61403 0-4.05776-1.0633-4.79915-2.2973-.70091-1.1667-.70086-2.3672-.70085-2.5755zm5.5-2.768c1.6569 0 3-1.3431 3-2.9999s-1.3431-2.9999-3-2.9999-3 1.3431-3 2.9999 1.3431 2.9999 3 2.9999z" fill="rgb(0,0,0)"/></svg>