<svg id="Layer" height="512" viewBox="0 0 24 24" width="512" xmlns="http://www.w3.org/2000/svg"><path id="calendar-star" d="m20.7 9.75h-17.4a.3.3 0 0 0 -.3.3v7.95a2.652 2.652 0 0 0 3 3h12a2.652 2.652 0 0 0 3-3v-7.95a.3.3 0 0 0 -.3-.3zm-5.318 4.834-1.261 1.2a.377.377 0 0 0 -.112.339l.288 1.645a.414.414 0 0 1 -.6.431l-1.512-.778a.4.4 0 0 0 -.362 0l-1.511.778a.416.416 0 0 1 -.612-.429l.288-1.644a.377.377 0 0 0 -.112-.339l-1.261-1.2a.38.38 0 0 1 .216-.652l1.743-.248a.391.391 0 0 0 .294-.208l.755-1.5a.421.421 0 0 1 .748 0l.755 1.5a.391.391 0 0 0 .294.208l1.743.248a.38.38 0 0 1 .219.649zm5.618-7.084v.45a.3.3 0 0 1 -.3.3h-17.4a.3.3 0 0 1 -.3-.3v-.45a2.652 2.652 0 0 1 3-3h1.25v-1.5a.75.75 0 0 1 1.5 0v1.5h6.5v-1.5a.75.75 0 0 1 1.5 0v1.5h1.25a2.652 2.652 0 0 1 3 3z" fill="rgb(0,0,0)"/></svg>