<svg height="512" viewBox="0 0 24 24" width="512" xmlns="http://www.w3.org/2000/svg"><g id="Layer_2" data-name="Layer 2"><path d="m21.97266 10.522-8.81934-7.67868a1.75945 1.75945 0 0 0 -2.30566-.001l-8.81641 7.67581a1.7465 1.7465 0 0 0 1.13867 3.06933h1.08008v6.25a1.75212 1.75212 0 0 0 1.75 1.75h2.5a1.75212 1.75212 0 0 0 1.75-1.75v-2.5a1.75442 1.75442 0 0 1 .57715-1.29882 1.73633 1.73633 0 0 1 1.35644-.44239 1.84922 1.84922 0 0 1 1.56641 1.88575v2.35547a1.75212 1.75212 0 0 0 1.75 1.75h2.5a1.75212 1.75212 0 0 0 1.75-1.75v-6.25h1.08008a1.7462 1.7462 0 0 0 1.14258-3.06547z"/></g></svg>