<svg id="Layer_1" enable-background="new 0 0 512 512" height="512" viewBox="0 0 512 512" width="512" xmlns="http://www.w3.org/2000/svg"><path clip-rule="evenodd" d="m185.086 233.561h-139.547c-10.121 0-18.33-8.21-18.33-18.331s8.209-18.33 18.33-18.33h139.547l-20.182-20.186c-7.158-7.159-7.155-18.765-.001-25.924 7.157-7.162 18.762-7.159 25.921-.001l51.479 51.479c7.159 7.159 7.159 18.766 0 25.925l-51.479 51.479c-3.446 3.445-8.085 5.373-12.958 5.373-4.879 0-9.512-1.921-12.963-5.373-7.155-7.158-7.156-18.767 0-25.924zm74.595 196.895v25.515c0 20.458 10.191 38.125 27.909 48.356 8.533 4.927 18.044 7.672 27.919 7.672s19.386-2.745 27.919-7.672l113.454-65.502c17.721-10.231 27.909-27.891 27.909-48.352v-334.636c0-30.788-25.036-55.837-55.827-55.837h-249.869c-30.792 0-55.842 25.045-55.842 55.837v70.543c0 10.124 8.206 18.331 18.33 18.331 10.126 0 18.335-8.204 18.335-18.331v-70.543c0-10.575 8.601-19.171 19.176-19.171h218.949l-110.443 63.772c-17.721 10.232-27.918 27.893-27.918 48.356v244.996h-80.587c-10.572 0-19.176-8.593-19.176-19.167v-61.845c0-10.127-8.209-18.331-18.335-18.331-10.124 0-18.33 8.207-18.33 18.331v61.845c0 30.793 25.05 55.833 55.842 55.833z" fill-rule="evenodd"/></svg>