<?xml version="1.0" encoding="UTF-8"?>
<svg id="Layer_1" data-name="Layer 1" xmlns="http://www.w3.org/2000/svg" viewBox="0 0 425.88 511.2">
  <defs>
    <style>
      .cls-1 {
        fill: #f0f0f0;
      }
    </style>
  </defs>
  <g id="_0WrLL3.tif" data-name="0WrLL3.tif">
    <g>
      <path class="cls-1" d="M217.94,0c20.98,7.43,15.31,26.02,16.1,43.78,46.21,7.15,87.26,35.4,109.78,76.32,41.89,76.12-12.14,155.77,57.18,229.24,5.23,5.54,12.4,10.12,16.89,16.04,19.26,25.43,1.56,60.2-29.8,60.84l-353.21-.06c-25.16-2.57-41.46-27-32.31-51.25,4.49-11.9,14.22-16.93,22.33-25.57,69.07-73.53,15.54-152.65,56.83-228.59,22.53-41.44,63.58-69.54,110.13-76.97.87-17.92-5.06-36.33,16.1-43.78h9.98Z"/>
      <path class="cls-1" d="M290.77,447.13c-5.57,34.44-37.62,61.79-72.28,63.92-39.51,2.43-76.45-24.72-83.35-63.92h155.64Z"/>
    </g>
  </g>
</svg>