<?xml version="1.0" encoding="UTF-8"?>
<svg id="Layer_2" data-name="Layer 2" xmlns="http://www.w3.org/2000/svg" viewBox="0 0 425.88 426.17">
  <defs>
    <style>
      .cls-1 {
        fill: #eff0f0;
      }
    </style>
  </defs>
  <g id="Layer_1-2" data-name="Layer 1">
    <g id="_1SpSWy.tif" data-name="1SpSWy.tif">
      <g>
        <path class="cls-1" d="M127.92,276.91l167.36-.32c54.13,7.36,35.96,82.93,11.41,112.24-43,51.33-150.43,49.64-190.92-4.57-21.42-28.68-36.98-98.24,12.15-107.36Z"/>
        <path class="cls-1" d="M139.11,148.93c-20.12,35.61-12.05,78.8,16.96,106.75h-31.43c-2.02,0-11.94,3.46-14.45,4.51-15.67,6.53-24.9,18.65-32.53,33.25-34.46-7.65-62.55-32.7-72.73-66.69-4.75-15.86-8.16-44.18-.04-58.89,4.35-7.88,17.79-18.92,26.97-18.92h107.25Z"/>
        <path class="cls-1" d="M269.81,255.68c28.96-27.92,37.09-71.19,16.96-106.75h107.25c9.19,0,22.62,11.04,26.97,18.92,8.13,14.71,4.72,43.03-.04,58.89-10.18,33.95-38.32,59.02-72.73,66.69-7.64-14.6-16.86-26.72-32.53-33.25-2.51-1.05-12.42-4.51-14.45-4.51h-31.43Z"/>
        <path class="cls-1" d="M106.97.55c68.25-8.19,101.34,76.59,48.02,114.86-50.03,35.91-116.11-11.17-99.18-70.25C62.03,23.43,84.23,3.28,106.97.55Z"/>
        <path class="cls-1" d="M298.52.55c68.25-8.19,101.34,76.59,48.02,114.86-50.03,35.91-116.11-11.17-99.18-70.25,6.23-21.74,28.43-41.88,51.17-44.61Z"/>
        <path class="cls-1" d="M202.75,128.26c68.25-8.19,101.34,76.59,48.02,114.86-50.03,35.91-116.11-11.17-99.18-70.25,6.23-21.74,28.43-41.88,51.17-44.61Z"/>
      </g>
    </g>
  </g>
</svg>