<?xml version="1.0" encoding="UTF-8"?>
<svg id="Layer_2" data-name="Layer 2" xmlns="http://www.w3.org/2000/svg" viewBox="0 0 443.2 448.28">
  <defs>
    <style>
      .cls-1 {
        fill: #eff0f0;
      }
    </style>
  </defs>
  <g id="Layer_1-2" data-name="Layer 1">
    <g id="nMQy1Y.tif">
      <g>
        <path class="cls-1" d="M421.27,448.28h-1l-46.6-46.76c-1.7-.44-12.78,6.34-15.99,7.61-86.01,34.09-156.45-73.85-91.95-137.85,62.56-62.09,168.04,1.74,140.29,86.41-2.42,7.4-6.81,13.83-9.58,21.04l46.77,47.1-21.93,22.45ZM321.28,278.96c-72.36,6.24-57.19,117.77,15.23,103.02,63.53-12.93,49.37-108.59-15.23-103.02Z"/>
        <path class="cls-1" d="M288.57,157.93c2.49,23.45,3.47,47.11,2.86,70.71-21.93,6.99-40.95,21.4-54.24,40.05h-100.28c-2.77-36.86-2.77-73.9,0-110.75h151.66Z"/>
        <path class="cls-1" d="M284.58,126h-142.68c3.63-26.41,11-52.34,21.49-76.8,4.77-11.11,10.07-22.69,17.91-31.97,2.84-3.36,14.29-14.82,17.73-16.19,2.91-1.17,23.62-1.36,26.94-.51s14.57,11.7,17.22,14.71c6.41,7.29,11.11,15.89,15.31,24.6,13.08,27.09,21,56.58,26.08,86.17Z"/>
        <path class="cls-1" d="M105.98,157.93c-4.19,36.51-4.18,74.29,0,110.75H7.2c-9.6-36.08-9.6-74.67,0-110.75h98.78Z"/>
        <path class="cls-1" d="M419.27,157.93c9.03,36.73,9.27,74.01-.05,110.7-1.65-.04-4.43.56-5.73-.17-.82-.46-9.39-12.48-11.69-14.74-20.34-19.95-49.89-31.04-78.32-30.93l-2.99-64.86h98.78Z"/>
        <path class="cls-1" d="M221.72,300.61c-10.84,37.49-.76,76.54,24.96,105.25-.01,3.85-15.94,18.83-19.93,20.02-3.68,1.09-19.12.91-23.54.5-14.24-1.32-30.55-28.64-36.23-40.6-12.53-26.39-20.95-56.25-25.08-85.17h79.82Z"/>
        <path class="cls-1" d="M109.97,300.61c4.06,29.65,11.79,61.04,23.77,88.48,3.55,8.13,8.3,15.72,12.33,23.59.42.82,1.72,2.1.3,2.7-56.16-17.69-103.89-60.74-127.2-114.76h90.8Z"/>
        <path class="cls-1" d="M407.3,126h-90.8c-4.61-29.55-11.87-59.99-23.77-87.48-4.18-9.66-9.88-18.65-14.13-28.26,56.84,19.07,104.2,60.94,128.7,115.74Z"/>
        <path class="cls-1" d="M19.17,126c19.99-46.36,60.04-86.3,106.09-106.94,4.26-1.91,16.24-7.22,20.13-7.82,1.53-.24,1.74-.03,1.49,1.49-20.34,34.1-31.51,74.03-36.9,113.27H19.17Z"/>
      </g>
    </g>
  </g>
</svg>