<?xml version="1.0" encoding="UTF-8"?>
<svg id="Layer_2" data-name="Layer 2" xmlns="http://www.w3.org/2000/svg" viewBox="0 0 447 468.47">
  <defs>
    <style>
      .cls-1 {
        fill: #eff0f0;
      }
    </style>
  </defs>
  <g id="Layer_1-2" data-name="Layer 1">
    <g id="c6fyyc.tif">
      <g>
        <path class="cls-1" d="M446.6,373.21c.52,5.17.55,15.81,0,20.96-7.61,71.11-100.47,100.46-148.56,46.43-51.52-57.89-5.66-148.34,71.29-142.21,38.19,3.05,73.38,36.33,77.27,74.82ZM393.27,351.76c-2.31,0-5.16.99-6.99,2.48l-35.02,34.86c-1.89.33-11.75-11.57-14.39-13.33-11.56-7.74-23.31,3.86-14.41,15.42,2.59,3.37,19.45,20.47,22.5,22.38,3.29,2.07,7.05,2.15,10.67.79l46.98-46.77c3.84-7.46-.98-15.83-9.34-15.83Z"/>
        <path class="cls-1" d="M109.66,0c7.25,2.55,13.99,5.86,16.68,13.73,2.23,6.54,2.01,33.77,1.3,41.69-1.97,22.07-32.15,26.92-40.8,6.83-3.13-7.26-2.89-32.14-2.14-40.84.96-11.14,7.63-18.05,17.98-21.42h6.98Z"/>
        <path class="cls-1" d="M301.06,0c7.25,2.55,13.99,5.86,16.68,13.73,2.23,6.54,2.01,33.77,1.3,41.69-1.97,22.07-32.15,26.92-40.8,6.83-3.13-7.26-2.89-32.14-2.14-40.84.96-11.14,7.63-18.05,17.98-21.42h6.98Z"/>
        <path class="cls-1" d="M403.73,149.68v135.71c-6.12-1.6-11.92-3.89-18.13-5.31-84.83-19.34-154.48,63.55-122.2,144.28,1.73,4.32,4.62,8.16,5.75,12.71H48.35c-20.58,0-48.35-25.57-48.35-46.4v-240.99h403.73ZM77.49,202.81c-7.38,1.24-12.61,6.96-13.61,14.32s-.91,26.6-.09,33.84c1,8.85,6.64,14.48,15.45,15.47,7.39.83,25.51.83,32.9,0,8.84-1,14.46-6.65,15.45-15.47.83-7.4.83-25.54,0-32.94-.93-8.27-6.22-14.24-14.54-15.38-6.77-.92-28.96-.96-35.56.15ZM183.17,202.81c-5.5.92-11.79,6.78-12.64,12.3-1.07,6.91-.95,30.7-.09,37.88s7.57,12.71,14.47,13.45c7.86.84,26.05.85,33.9,0,5.75-.62,11.9-4.39,13.96-9.97,2.41-6.52,2.41-37.41,0-43.92-1.89-5.12-7.73-9.15-13.05-9.88-6.86-.95-29.86-.98-36.56.15ZM289.83,202.81c-4.96.85-10.45,4.97-12.21,9.73-2.41,6.52-2.41,37.41,0,43.92,2.06,5.57,8.2,9.35,13.96,9.97,7.74.84,26.19.87,33.9,0,6.94-.78,13.62-6.31,14.47-13.45.92-7.67.92-29.29,0-36.97-.79-6.61-7.13-12.48-13.57-13.36-6.86-.93-29.89-.98-36.56.15ZM79.53,319.6c-7.79,1-14.1,5.23-15.49,13.43-1.19,6.98-1.03,28.33-.24,35.69.68,6.35,6.02,13.4,12.53,14.4,6.91,1.07,30.67.95,37.84.09s12.7-7.57,13.44-14.49.83-33.04-1.21-38.71c-1.28-3.57-4.51-7.44-8.06-8.9-6.61-2.73-31.07-2.5-38.8-1.51ZM174.79,378.86c1.38,1.38,6.22,3.95,8.2,4.26,7.21,1.14,28.13.79,35.86.1,6.26-.55,11.26-3.24,13.63-9.3,2.75-7.01,2.78-36.44.27-43.62-1.41-4.04-4.76-7.65-8.75-9.21-7.01-2.75-36.41-2.78-43.57-.27-5.86,2.05-9.33,6.87-9.98,12.96-.68,6.33-.85,34.18.76,39.15.36,1.13,2.72,5.07,3.56,5.92Z"/>
        <path class="cls-1" d="M63.8,31.93v26.44c0,22.57,26.99,39.83,48.24,37.31,15.46-1.83,36.49-18.92,36.49-35.32v-28.44h106.67v26.44c0,22.57,26.99,39.83,48.24,37.31,15.46-1.83,36.49-18.92,36.49-35.32v-28.44h16.45c18.73,0,47.35,25.29,47.35,44.41v51.39H0v-49.39C0,57.49,27.69,31.93,48.35,31.93h15.45Z"/>
      </g>
    </g>
  </g>
</svg>