<?xml version="1.0" encoding="UTF-8"?>
<svg id="Layer_2" data-name="Layer 2" xmlns="http://www.w3.org/2000/svg" viewBox="0 0 384 384">
  <defs>
    <style>
      .cls-1 {
        fill: #fff;
      }
    </style>
  </defs>
  <g id="Layer_1-2" data-name="Layer 1">
    <g>
      <path class="cls-1" d="M384,0v384H0V0h384ZM105.75,68.12c.22,8.88,1.03,22.69.02,31.08-1.17,9.66-13.75,13.41-20.57,6.27-1.1-1.15-3.45-5.68-3.45-7.04v-30.32h-17.62c-16.96,0-40.12,24.76-40.12,41.54v11.6h255.75v-13.85c0-9.97-12.31-25.78-20.45-31.24-13.39-8.97-21.95-7.81-37.3-8.06-.14-4.7.76-7.75-1.77-12.08-4.1-7.02-14.4-7.56-19.42-1.21-3.49,4.42-2.65,8.16-2.81,13.29-30.74-.17-61.51.17-92.25,0-.17-6.92,1.15-12.84-6.46-16.39-10.8-5.03-20.22,5.5-16.84,16.06,7.74.64,15.55.28,23.3.33ZM279.75,145.22H24v118.64c0,19.95,25.01,42.29,44.62,42.29h57.38c-.78-3.99-2.96-7.22-4.12-11.23-6.16-21.24,1.83-45.44,14.31-62.81,1.22-1.7,6.61-7.11,6.91-8.08.66-2.17-.85-11.05-.59-14.8,2.95-43.48,54.96-71.07,90.33-43.08,12.68-4.61,26.11-3.88,38.88-.07l8.03-6.26v-14.6ZM215.75,200.36c6.88-6.87,2.92-17.44-5.9-20.18-22.38-6.97-44.97,13.02-43.37,35.81.43,6.13,3.42,11.31,5.24,16.78-21.1,9.01-37.78,47.61-20.98,66.07,5.69,6.25,17.96,11.52,25.76,6.45,6.94-4.51,6.65-16.07-.61-20.11-5.18-2.89-8.44.61-7.89-7.82.86-13,12.11-25.44,24.71-28.48,6.73-1.62,14.51.28,18.66-6.82s.1-16.21-7.94-18.05c-3.61-.83-5.18.42-8.82-2.43-5.88-4.6-5.29-13.93,1.35-17.36s13.36,2.55,19.77-3.85ZM332.3,232.74c1.58-5.8,4.64-10.5,5.1-16.88,1.63-22.89-21.61-43.1-43.81-35.5-10.45,3.58-11.93,16.75-2.37,21.9,5.64,3.04,8.96-.1,14.06.92,7.04,1.41,10.21,9.52,6.6,15.65-3.68,6.26-12.04,3.27-15.67,12.06-1.84,4.47-1.78,7.79.9,11.88,3.85,5.89,9.01,4.65,14.72,6.26,12.65,3.58,23.37,15.72,24.15,29.06.41,6.91-2.07,4.53-6.41,6.3-8.14,3.32-9.91,14.81-2.96,20.25,8.75,6.84,22.21-.21,28.1-7.87,14.26-18.54-2.22-55.34-22.43-64.04ZM283.5,248.5c6.17-11.04,8.82-21.68,5.46-34.26-10.24-38.35-69.03-35.28-75.13,4.78-1.66,10.89,1.41,20.11,6.67,29.48-32.59,13.89-54.06,79.82-4.9,86.12,37.17-4.24,117.64,19.15,99.19-47.35-4.39-15.83-16.26-31.75-31.29-38.77Z"/>
      <path class="cls-1" d="M222,68.12c.23,8.04,1.17,25.1-.33,32.23-2.5,11.84-20.68,12.12-23.33-.75-1.46-7.08-.58-23.56-.33-31.48,7.99.04,16.02-.13,24,0Z"/>
      <path d="M279.75,145.22v14.6l-8.03,6.26c-12.77-3.8-26.21-4.54-38.88.07-35.37-27.99-87.38-.4-90.33,43.08-.25,3.76,1.25,12.63.59,14.8-.3.97-5.69,6.38-6.91,8.08-12.48,17.37-20.47,41.57-14.31,62.81,1.16,4.01,3.34,7.24,4.12,11.23h-57.38c-19.61,0-44.62-22.34-44.62-42.29v-118.64h255.75Z"/>
      <path d="M283.5,248.5c15.03,7.02,26.89,22.95,31.29,38.77,18.45,66.5-62.02,43.11-99.19,47.35-49.16-6.3-27.69-72.23,4.9-86.12-5.26-9.36-8.33-18.58-6.67-29.48,6.1-40.06,64.88-43.13,75.13-4.78,3.36,12.58.71,23.21-5.46,34.26Z"/>
      <path d="M105.75,68.12c30.74.17,61.51-.17,92.25,0-.25,7.92-1.13,24.41.33,31.48,2.65,12.87,20.84,12.59,23.33.75,1.5-7.12.57-24.19.33-32.23,15.34.25,23.91-.91,37.3,8.06,8.15,5.46,20.45,21.26,20.45,31.24v13.85H24v-11.6c0-16.78,23.16-41.54,40.12-41.54h17.62v30.32c0,1.36,2.35,5.88,3.45,7.04,6.82,7.14,19.4,3.39,20.57-6.27,1.01-8.39.2-22.21-.02-31.08-7.75-.04-15.56.31-23.3-.33-3.38-10.56,6.05-21.09,16.84-16.06,7.61,3.55,6.29,9.46,6.46,16.39Z"/>
      <path d="M222,68.12c-7.98-.13-16.01.04-24,0,.16-5.13-.68-8.86,2.81-13.29,5.02-6.35,15.31-5.81,19.42,1.21,2.54,4.33,1.63,7.38,1.77,12.08Z"/>
      <path d="M215.75,200.36c-6.41,6.39-13.34.52-19.77,3.85s-7.23,12.76-1.35,17.36c3.64,2.85,5.21,1.6,8.82,2.43,8.05,1.84,12.23,10.71,7.94,18.05s-11.94,5.2-18.66,6.82c-12.61,3.04-23.86,15.48-24.71,28.48-.55,8.43,2.7,4.93,7.89,7.82,7.26,4.05,7.54,15.6.61,20.11-7.8,5.08-20.07-.2-25.76-6.45-16.81-18.47-.12-57.06,20.98-66.07-1.83-5.47-4.82-10.65-5.24-16.78-1.59-22.79,20.99-42.78,43.37-35.81,8.82,2.75,12.78,13.32,5.9,20.18Z"/>
      <path d="M332.3,232.74c20.21,8.7,36.68,45.5,22.43,64.04-5.89,7.66-19.36,14.72-28.1,7.87-6.95-5.44-5.19-16.93,2.96-20.25,4.34-1.77,6.82.62,6.41-6.3-.79-13.35-11.5-25.48-24.15-29.06-5.72-1.62-10.87-.37-14.72-6.26-2.68-4.09-2.74-7.41-.9-11.88,3.62-8.79,11.98-5.8,15.67-12.06,3.61-6.13.44-14.24-6.6-15.65-5.11-1.02-8.42,2.11-14.06-.92-9.57-5.15-8.08-18.32,2.37-21.9,22.2-7.6,45.44,12.61,43.81,35.5-.45,6.38-3.52,11.07-5.1,16.88Z"/>
    </g>
  </g>
</svg>