<?xml version="1.0" encoding="UTF-8"?>
<svg id="Layer_2" data-name="Layer 2" xmlns="http://www.w3.org/2000/svg" viewBox="0 0 511.13 407">
  <defs>
    <style>
      .cls-1 {
        fill: #eff0f0;
      }
    </style>
  </defs>
  <g id="Layer_1-2" data-name="Layer 1">
    <g id="b9vNlo.tif">
      <g>
        <path class="cls-1" d="M260.62.13c9.06,1.75,14.66,5.21,21.86,10.57,24.17,17.97,46.47,40.96,70.47,59.23,1.04.8,2.25,1.56,3.49,2V12.59c0-6.03,4.44-10.77,10.46-11.49,12.59-1.52,48.22-1.42,60.9.02,5.75.66,10.46,4.28,10.53,10.42l.16,128.49c23.19,21.85,50.02,40.11,72.65,62.53v6.98l-23.45,27.93c-3,1.94-7.02,2.77-10.44,1.44-74.54-60.6-147.33-123.46-221.96-183.86L36.98,236.9c-3.11,2.22-6.38,3.22-10.2,2.36-6.29-1.43-19.12-22.11-24.87-27.01-2.48-3.84-2.86-9.24.68-12.69L228.21,11.12l12.08-7.87,10.35-3.12h9.98Z"/>
        <path class="cls-1" d="M296.55,407v-121.66h-81.84v121.66h-124.26c-7.27,0-17.46-10.93-17.47-18.45l.51-156.06L255.28,83.1l3.84,1.79,178.64,147.6.51,156.06c0,7.52-10.19,18.45-17.47,18.45h-124.26Z"/>
      </g>
    </g>
  </g>
</svg>