<?xml version="1.0" encoding="UTF-8"?>
<svg id="Layer_1" xmlns="http://www.w3.org/2000/svg" version="1.1" viewBox="0 0 458.2 459">
  <!-- Generator: Adobe Illustrator 29.5.0, SVG Export Plug-In . SVG Version: 2.1.0 Build 137)  -->
  <defs>
    <style>
      .st0 {
        fill: #f0f0f0;
      }
    </style>
  </defs>
  <path class="st0" d="M222.3,0c89.6,4,144.5,102.9,95.2,180.5-48,75.6-160.5,71.1-202.5-7.9C74.5,96.4,128.9,3.4,214.4,0h8Z"/>
  <path class="st0" d="M30.2,437c-13.1-1.8-27.3-15.5-29.2-28.7-2.1-14.5-1.2-49,3.7-62.6,15.7-43.3,72.1-68.8,113.6-80,54.5-14.8,112.3-15.9,167.9-7.3-13.6,18.9-20.4,42.7-19.5,65.9-11.7,14.8-53.3,45.3-53.3,64.3v48.4H30.2Z"/>
  <path class="st0" d="M366.8,234.8c40.2-2.9,78.9,24.1,88.7,63.4,15,60.3-34.4,114.6-95.5,106.4l-49.9,49.9c-2.5,2.4-5.1,3.2-8.5,3.5-12.7,1.2-40.3,1.2-53,0-8.6-.8-13.6-7.3-14.4-15.5-1.2-12-1.1-36.8,0-48.9.5-5.7,2.5-8.7,6-13,13.5-16.4,33.3-31,47.4-47.4.9-13-.3-24,3.2-36.7,9.5-34.1,40.5-59.2,75.9-61.8h0ZM367.8,297.6c-8.3,1.4-16.3,10.2-17.4,18.5-2.7,18.9,15.2,32.4,32.7,24.7,23-10.1,13.7-48.1-15.2-43.2h0Z"/>
</svg>