<?xml version="1.0" encoding="UTF-8"?>
<svg id="Layer_2" data-name="Layer 2" xmlns="http://www.w3.org/2000/svg" viewBox="0 0 479.38 479.14">
  <defs>
    <style>
      .cls-1 {
        fill: #eff0f0;
      }
    </style>
  </defs>
  <g id="Layer_1-2" data-name="Layer 1">
    <g id="_3YgVdk.tif" data-name="3YgVdk.tif">
      <g>
        <path class="cls-1" d="M206.95,0c143.32,12.22,225.96,174.03,145.51,296.69-75.3,114.81-243.98,115.32-320.17,1.22C-48.6,176.77,31.15,12.85,175.42.92l1.58-.92h29.94ZM182.79,48.19c-110.44,7.21-172.37,132.7-109.38,224.55,59.2,86.33,188.88,82.16,242.12-7.99,58.58-99.2-18.14-224.04-132.74-216.56Z"/>
        <path class="cls-1" d="M479.38,430.1v13.97c-7.66,32.93-43.83,46.45-70.38,23.98-24.55-20.78-46.43-49.4-70.85-70.86-3.78-4.11-3.19-7.74,0-12.01,11.93-16.01,34.48-31.32,47.4-47.4,3.32-3.43,8.69-3.43,12.01,0,21.27,24.57,50.91,46.65,71.34,71.36,5.52,6.67,7.83,12.82,10.47,20.97Z"/>
        <path class="cls-1" d="M355.14,319.35l13.45,13.45-35.41,35.41-13.45-13.45c13.19-10.2,25.2-22.21,35.41-35.41Z"/>
        <path class="cls-1" d="M182.8,80.13c55.32-5.2,100.97,39.58,96.99,94.99-3.09,42.94-45.02,95.74-77.35,122.23-9.99,8.18-10.92,8.18-20.9,0-32.66-26.75-74.64-79.76-77.41-123.18-2.99-46.92,31.46-89.61,78.68-94.05ZM187.76,128.01c-51.08,5.31-44.27,82.72,6.7,79.54,53-3.31,46.8-85.09-6.7-79.54Z"/>
      </g>
    </g>
  </g>
</svg>