<?xml version="1.0" encoding="UTF-8"?>
<svg id="Layer_2" data-name="Layer 2" xmlns="http://www.w3.org/2000/svg" viewBox="0 0 511.02 512">
  <defs>
    <style>
      .cls-1 {
        fill: #eff0f0;
      }
    </style>
  </defs>
  <g id="Layer_1-2" data-name="Layer 1">
    <g id="KoDSl3.tif">
      <g>
        <path class="cls-1" d="M332.37,0l24.16,3.28c65.14,11.69,126.95,53.8,148,118.41l6.49,29.92v25.93l-6.48,29.93c-3.99,11.42-8.74,22.5-15.06,32.83-2.34,3.83-16.3,21.18-16.44,22.57-.4,3.98,35.31,39.58,37.98,47.33v7.98c-2.62,5.23-5.6,9.37-11.71,10.74l-48.18.24c-2.66-101.97-86.31-177.57-181.63-198-42.57-9.13-83.67-8.26-125.97,1.8-6.96,1.65-13.72,4.32-20.75,5.69C137.36,57.91,219.8,5.77,297.85.92l1.58-.92h32.94Z"/>
        <path class="cls-1" d="M194.43,154.89c87.34-5.25,183.63,37.07,216.53,122.14,44.58,115.26-64.19,227.35-175.86,233.68-72.14,4.09-148.11-3.18-220.65,0-11.02-.7-17.31-10.91-13.17-21.22,1.54-3.83,11.81-14.76,15.19-18.73,8.5-9.96,17.74-19.46,26.28-29.4-52.79-59.8-57.94-143.23-8.2-206.87,37.36-47.79,99.69-75.99,159.88-79.6ZM116.57,299.5c-37.63,3.61-33.74,61.25,4.67,59.58,39.38-1.72,36.49-63.53-4.67-59.58ZM207.39,299.5c-37.73,3.62-33.77,61.26,4.67,59.58,39.38-1.72,36.49-63.53-4.67-59.58ZM298.22,299.5c-37.73,3.62-33.77,61.26,4.67,59.58,39.38-1.72,36.49-63.53-4.67-59.58Z"/>
      </g>
    </g>
  </g>
</svg>