<?xml version="1.0" encoding="UTF-8"?>
<svg id="Layer_2" data-name="Layer 2" xmlns="http://www.w3.org/2000/svg" viewBox="0 0 18 18">
  <defs>
    <style>
      .cls-1 {
        fill: #fff;
      }
    </style>
  </defs>
  <g id="Layer_1-2" data-name="Layer 1">
    <g>
      <path class="cls-1" d="M18,0v18H0V0h18ZM8.43,1.55c-3.61.28-6.08,3.83-5.28,7.32.58,2.54,3.14,5.23,5.04,6.93.26.24.54.47.82.68,2.02-1.78,4.29-3.86,5.41-6.36,1.93-4.31-1.25-8.94-5.99-8.57Z"/>
      <path d="M8.43,1.55c4.74-.37,7.92,4.26,5.99,8.57-1.12,2.5-3.39,4.57-5.41,6.36-.28-.21-.56-.45-.82-.68-1.91-1.7-4.46-4.39-5.04-6.93-.8-3.49,1.67-7.04,5.28-7.32ZM8.78,3.03c-2.56.13-4.45,2.3-4.28,4.85.11,1.76,1.67,3.75,2.83,5,.53.57,1.1,1.11,1.68,1.61.96-.88,1.91-1.81,2.71-2.84.93-1.19,1.85-2.69,1.78-4.26-.12-2.53-2.16-4.49-4.72-4.36Z"/>
      <path class="cls-1" d="M8.78,3.03c2.56-.13,4.6,1.83,4.72,4.36.07,1.57-.85,3.07-1.78,4.26-.8,1.03-1.75,1.96-2.71,2.84-.59-.5-1.16-1.05-1.68-1.61-1.16-1.25-2.72-3.24-2.83-5-.16-2.55,1.72-4.72,4.28-4.85ZM8.82,4.54c-1.13.13-1.72,1.49-1.01,2.39.61.78,1.78.78,2.39,0,.81-1.04-.07-2.54-1.38-2.39ZM8.57,8.29c-.69.06-2.21.46-2.5,1.16-.17.43-.01.54.29.81,1.47,1.33,3.8,1.33,5.27,0,.25-.22.41-.32.34-.69-.21-1.03-2.56-1.36-3.4-1.29Z"/>
      <path d="M8.57,8.29c.85-.07,3.19.26,3.4,1.29.08.36-.09.46-.34.69-1.47,1.33-3.8,1.33-5.27,0-.3-.27-.46-.38-.29-.81.28-.7,1.8-1.1,2.5-1.16Z"/>
      <path d="M8.82,4.54c1.31-.15,2.19,1.35,1.38,2.39-.61.78-1.78.78-2.39,0-.71-.9-.12-2.26,1.01-2.39Z"/>
    </g>
  </g>
</svg>