<?xml version="1.0" encoding="UTF-8"?>
<svg id="Layer_2" data-name="Layer 2" xmlns="http://www.w3.org/2000/svg" viewBox="0 0 434 447">
  <defs>
    <style>
      .cls-1 {
        fill: #f0f0f0;
      }
    </style>
  </defs>
  <g id="Layer_1-2" data-name="Layer 1">
    <g id="W0Wnui.tif">
      <g>
        <path class="cls-1" d="M269.64,0c8.38,3.54,15.77,9.45,17.48,18.91,1.54,8.52,1.35,33.42.44,42.44-1.51,14.94-12.45,21.54-26.34,22.51-42.94,2.99-89.27-2.36-132.57,0-10.66-.14-23.27-7.6-25.13-18.73-1.39-8.29-1.22-35.96-.24-44.67,1.2-10.58,8.72-16.66,17.93-20.45h148.43Z"/>
        <path class="cls-1" d="M434,280.37v2.99c-1.43,3.51-1.33,7.13-2.54,10.93-4.18,13.19-18.12,21.8-26.85,31.96l-53.28-53.36c15.37-14.84,25.03-30.83,49.28-28.43,17.57,1.74,32.46,18.44,33.38,35.91Z"/>
        <path class="cls-1" d="M79.37,41.91v23.45c0,18.24,21.66,39.4,39.61,41.15,48.42-2.67,102.41,4.45,150.2.29,20.27-1.76,42.3-22.53,42.3-43.44v-21.45h28.39c22.5,0,49.1,30.84,48.35,53.34l-.05,126.25c-26.55,1.9-44.07,24.32-60.73,42.44-31.21,34.12-73.5,66.48-102.6,101.78-2.13,2.59-5.06,6.46-6.54,9.41-3.81,7.6-11.2,48.39-11.31,57.52-.05,4.44,1.79,10.03,2.88,14.36H51.98c-26.08,0-52.61-33.83-50.35-59.32,4.01-94.25-5.16-192.7,0-286.46,1.23-22.36,9.75-41.75,30.04-52.73,3.27-1.77,15.17-6.59,18.32-6.59h29.39ZM97.01,168.83c-12.32,4.44-13.31,21.58-1.25,26.78l161.44.97c16.22-2.95,16.23-25.03,0-27.98l-160.19.23ZM101.05,249.7c-17.96,2.58-18.59,23.93-2.01,28.44,22.61-1.79,51.51,3.26,73.39.15,15.98-2.27,17.42-26.07-2.19-28.57-13.91-1.77-55.53-1.99-69.19-.02Z"/>
        <path class="cls-1" d="M334.09,290.46l54.07,52.28-94.68,94.72c-4.74,3.17-38.15,8.9-45.39,9.42-8.7.62-17.37-3.58-17.38-13.34,0-5.47,6.92-43.91,9.02-47.92l94.36-95.15Z"/>
      </g>
    </g>
  </g>
</svg>