<?xml version="1.0" encoding="UTF-8"?>
<svg id="Layer_2" data-name="Layer 2" xmlns="http://www.w3.org/2000/svg" viewBox="0 0 112.75 112.75">
  <defs>
    <style>
      .cls-1 {
        fill: #fff;
      }
    </style>
  </defs>
  <g id="Layer_1-2" data-name="Layer 1">
    <g id="_3VDruB.tif" data-name="3VDruB.tif">
      <g>
        <path class="cls-1" d="M41.73,0l-.37.22C7.46,3.02-11.27,41.52,7.73,69.98c17.9,26.8,57.52,26.68,75.21-.29C101.83,40.88,82.42,2.87,48.76,0h63.99v101.03c-.62-1.91-1.16-3.36-2.46-4.93-4.8-5.8-11.76-10.99-16.76-16.76-.78-.81-2.04-.81-2.82,0-3.03,3.78-8.33,7.37-11.13,11.13-.75,1-.89,1.86,0,2.82,5.73,5.04,10.88,11.76,16.64,16.64,6.24,5.28,14.73,2.1,16.53-5.63v8.44H0V0h41.73ZM83.57,75.02c-2.4,3.1-5.22,5.92-8.32,8.32l3.16,3.16,8.32-8.32-3.16-3.16Z"/>
        <path d="M48.76,0c33.66,2.87,53.08,40.88,34.18,69.69-17.69,26.97-57.31,27.09-75.21.29C-11.27,41.52,7.46,3.02,41.35.22l.37-.22h7.03ZM43.08,11.32c-25.94,1.69-40.49,31.17-25.69,52.75,13.91,20.28,44.37,19.3,56.87-1.88,13.76-23.3-4.26-52.63-31.18-50.87Z"/>
        <path d="M112.75,101.03v3.28c-1.8,7.73-10.3,10.91-16.53,5.63-5.77-4.88-10.91-11.6-16.64-16.64-.89-.97-.75-1.82,0-2.82,2.8-3.76,8.1-7.36,11.13-11.13.78-.81,2.04-.81,2.82,0,5,5.77,11.96,10.96,16.76,16.76,1.3,1.57,1.84,3.01,2.46,4.93Z"/>
        <path d="M83.57,75.02l3.16,3.16-8.32,8.32-3.16-3.16c3.1-2.4,5.92-5.22,8.32-8.32Z"/>
        <path class="cls-1" d="M43.08,11.32c26.92-1.76,44.94,27.57,31.18,50.87-12.51,21.18-42.97,22.16-56.87,1.88-14.8-21.58-.25-51.05,25.69-52.75ZM43.08,18.82c-11.09,1.04-19.18,11.07-18.48,22.09.65,10.2,10.51,22.65,18.18,28.93,2.35,1.92,2.56,1.92,4.91,0,7.59-6.22,17.45-18.63,18.17-28.71.94-13.01-9.79-23.53-22.78-22.31Z"/>
        <path d="M43.08,18.82c12.99-1.22,23.72,9.3,22.78,22.31-.72,10.09-10.58,22.49-18.17,28.71-2.35,1.92-2.56,1.92-4.91,0-7.67-6.28-17.53-18.74-18.18-28.93-.7-11.02,7.39-21.05,18.48-22.09ZM44.25,30.07c-12,1.25-10.4,19.43,1.57,18.68s10.99-19.99-1.57-18.68Z"/>
        <path class="cls-1" d="M44.25,30.07c12.57-1.31,14.02,17.91,1.57,18.68s-13.57-17.44-1.57-18.68Z"/>
      </g>
    </g>
  </g>
</svg>